<?xml version="1.0" encoding="UTF-8"?>
<svg width="700pt" height="700pt" version="1.1" viewBox="0 0 700 700" xmlns="http://www.w3.org/2000/svg">
 <g>
  <path d="m131.6 179.2c-11.199 11.199-11.199 28 0 39.199 11.199 11.199 28 11.199 39.199 0 33.602-33.602 33.602-86.801 0-117.6-11.199-11.199-11.199-28 0-39.199 11.199-11.199 11.199-28 0-39.199-11.199-11.199-28-11.199-39.199 0-33.602 33.602-33.602 86.801 0 117.6 11.199 11.199 11.199 30.801 0 39.199z"/>
  <path d="m271.6 207.2c-11.199 11.199-11.199 28 0 39.199 11.199 11.199 28 11.199 39.199 0 33.602-33.602 33.602-86.801 0-117.6-11.199-11.199-11.199-28 0-39.199 11.199-11.199 11.199-28 0-39.199-11.199-11.199-28-11.199-39.199 0-33.602 33.602-33.602 86.801 0 117.6 11.199 11.199 11.199 30.801 0 39.199z"/>
  <path d="m602 350h-207.2l193.2-114.8c14-8.3984 16.801-25.199 11.199-39.199-8.3984-14-25.199-16.801-39.199-8.3984l-274.4 165.2h-187.6c-22.398 0-36.398 25.199-25.199 42l84 140c5.6016 8.3984 14 14 25.199 14h336c11.199 0 19.602-5.6016 25.199-14l84-140c11.199-19.602-2.8008-44.801-25.199-44.801zm-100.8 140h-302.4l-50.398-84h406z"/>
 </g>
</svg>
