<?xml version="1.0" encoding="UTF-8"?>
<svg width="700pt" height="700pt" version="1.1" viewBox="0 0 700 700" xmlns="http://www.w3.org/2000/svg">
 <path d="m593.6 39.199c-78.402-78.398-246.4-33.598-383.6 100.8-134.4 137.2-179.2 305.2-100.8 383.6 50.398 50.398 137.2 47.602 190.4-5.6016l285.6-288.4c56-56 58.801-140 8.4023-190.4zm-47.602 151.2-285.6 285.6c-33.602 33.602-84 36.398-112 5.6016-36.398-33.602-22.398-103.6-2.7969-151.2 16.801 22.398 42 47.602 86.801 67.199 14 5.6016 30.801 0 36.398-14 5.6016-14 0-30.801-14-36.398-33.602-16.801-67.199-42-78.398-75.602 13.996-25.199 30.797-47.598 50.398-67.199 16.801 19.602 44.801 47.602 89.598 70 14 5.6016 30.801 0 36.398-14 5.6016-14 0-30.801-14-36.398-41.996-22.398-61.598-44.801-69.996-61.602 25.199-22.398 50.398-42 75.602-56 14 25.199 42 58.801 98 84 14 5.6016 30.801 0 36.398-14 5.6016-14 0-30.801-14-36.398-42-19.602-61.602-44.801-70-58.801 30.801-16.801 64.398-25.199 92.398-25.199s50.398 8.3984 64.398 22.398c30.801 28 30.801 78.402-5.5977 112z"/>
</svg>
