<?xml version="1.0" encoding="UTF-8"?>
<svg width="700pt" height="700pt" version="1.1" viewBox="0 0 700 700" xmlns="http://www.w3.org/2000/svg">
 <g>
  <path d="m630 252c0-95.199-56-182-159.6-246.4-8.3984-5.6016-19.602-5.6016-30.801 0l-355.6 224c-8.3945 2.7969-13.996 14-13.996 22.398v280c0 16.801 11.199 28 28 28h308c16.801 0 28-14 28-28 0-16.801 11.199-28 28-28s28 11.199 28 28 11.199 28 28 28h84c16.801 0 28-11.199 28-28zm-176.4-190.4c67.199 44.801 109.2 103.6 117.6 162.4h-375.2zm120.4 442.4h-33.602c-11.199-33.602-42-56-78.398-56s-67.199 22.398-78.398 56h-257.6v-224h448z"/>
  <path d="m462 112c-16.801 0-28 11.199-28 28v28c0 16.801 11.199 28 28 28s28-11.199 28-28v-28c0-16.801-11.199-28-28-28z"/>
  <path d="m487.2 394.8 19.602-19.602c11.199-11.199 11.199-28 0-39.199s-28-11.199-39.199 0l-19.602 19.602c-11.199 11.199-11.199 28 0 39.199 8.3984 8.3984 28 8.3984 39.199 0z"/>
  <path d="m375.2 140c-16.801 0-28 11.199-28 28s14 28 28 28 28-11.199 28-28c2.8008-14-8.3984-28-28-28z"/>
  <path d="m238 476c47.602 0 84-36.398 84-84s-36.398-84-84-84-84 36.398-84 84 36.398 84 84 84zm0-112c16.801 0 28 11.199 28 28s-11.199 28-28 28-28-11.199-28-28 14-28 28-28z"/>
 </g>
</svg>
