<?xml version="1.0" encoding="UTF-8"?>
<svg width="700pt" height="700pt" version="1.1" viewBox="0 0 700 700" xmlns="http://www.w3.org/2000/svg">
 <g>
  <path d="m464.8 58.801c-56-78.398-170.8-78.398-226.8 0-86.801-16.801-168 50.398-168 137.2 0 61.602 39.199 114.8 95.199 134.4l16.801 204.4c0 14 14 25.199 28 25.199h280c14 0 28-11.199 28-25.199l16.801-204.4c56-19.602 95.199-70 95.199-134.4 0-86.805-81.199-154-165.2-137.2zm-229.6 445.2-5.6016-56h238l-5.6016 56zm268.8-224c-14 2.8008-22.398 11.199-22.398 25.199l-8.4023 86.801h-246.4l-5.6016-86.801c-2.8008-14-11.199-25.199-25.199-25.199-39.199-8.3984-70-42-70-84 0-58.801 61.602-98 112-78.398 14 5.6016 28 0 36.398-14 30.801-64.398 120.4-64.398 151.2 0 5.6016 14 22.398 19.602 36.398 14 53.199-19.602 112 19.602 112 78.398 0.003906 42-30.797 75.602-69.996 84z"/>
  <path d="m448 142.8c-14 5.5977-19.602 22.398-14 36.398s22.398 22.398 36.398 16.801c8.4023-2.8008 19.602 5.6016 19.602 16.801 0 16.801 11.199 28 28 28s28-11.199 28-28c0-53.199-53.199-86.801-98-70z"/>
 </g>
</svg>
