<?xml version="1.0" encoding="UTF-8"?>
<svg width="700pt" height="700pt" version="1.1" viewBox="0 0 700 700" xmlns="http://www.w3.org/2000/svg">
 <path d="m562.8 229.6c-5.6016 2.8008-11.199 2.8008-16.801 5.6016v-207.2c0-16.801-11.199-28-28-28-120.4-0.0039062-215.6-0.0039062-336-0.0039062-16.801 0-28 11.199-28 28v246.4c-11.199 2.8008-25.199 8.3984-36.398 11.199-11.199 2.8008-19.602 14-19.602 25.199v221.2c0 16.801 11.199 28 28 28h445.2c16.801 0 28-11.199 28-28v-277.2c0-19.602-16.801-30.801-36.398-25.199zm-184.8 25.199v-30.801h112v22.398c-44.801 8.4023-72.801 8.4023-112 8.4023zm-168 5.5977v-36.398h112v25.199c-36.398 0-75.602 2.8008-112 11.199zm280-92.398h-112v-112h112zm-168-112v112h-112v-112zm221.2 448h-386.4v-170.8c61.602-19.602 128.8-30.801 190.4-25.199 64.398 5.6016 134.4 2.8008 196-14z"/>
</svg>
