<?xml version="1.0" encoding="UTF-8"?>
<svg width="700pt" height="700pt" version="1.1" viewBox="0 0 700 700" xmlns="http://www.w3.org/2000/svg">
 <path d="m630 280c0-39.199-25.199-70-61.602-81.199 2.8008-8.4023 5.6016-19.602 5.6016-30.801 0-47.602-36.398-84-84-84h-30.801c-11.199-47.602-56-84-109.2-84s-95.199 36.398-109.2 84h-30.801c-44.801 0-84 36.398-84 84 0 11.199 2.8008 22.398 5.6016 30.801-36.402 11.199-61.602 42-61.602 81.199s28 72.801 64.398 81.199l78.398 182c2.8047 11.199 14.004 16.801 25.203 16.801h224c11.199 0 22.398-5.6016 25.199-16.801l78.398-182c39.203-8.3984 64.402-42 64.402-81.199zm-187.6 224h-184.8l-58.801-140h308zm103.6-196h-392c-14 0-28-14-28-28 0-16.801 14-28 28-28h84c16.801 0 28-11.199 28-28s-14-28-28-28h-28c-16.801 0-28-11.199-28-28s14-28 28-28h56c16.801 0 28-11.199 28-28 0-30.801 25.199-56 56-56s56 25.199 56 56c0 16.801 11.199 28 28 28h56c16.801 0 28 11.199 28 28 0 14-11.199 28-28 28h-84c-16.801 0-28 11.199-28 28s11.199 28 28 28h140c16.801 0 28 11.199 28 28 0 14-11.199 28-28 28z"/>
</svg>
