<?xml version="1.0" encoding="UTF-8"?>
<svg width="700pt" height="700pt" version="1.1" viewBox="0 0 700 700" xmlns="http://www.w3.org/2000/svg">
 <g>
  <path d="m235.2 389.2c16.801 2.8008 30.801-5.6016 33.602-19.602 11.199-36.398 44.801-61.598 81.199-61.598 16.801 0 28-11.199 28-28s-11.199-28-28-28c-67.199 0-120.4 44.801-134.4 103.6-5.6016 16.797 2.7969 30.797 19.598 33.598z"/>
  <path d="m602 448h-5.6016c5.6016-19.602 5.6016-36.398 5.6016-56 0-98-53.199-182-140-224 0-61.602-50.398-112-112-112s-112 50.398-112 112c-86.801 42-140 128.8-140 224 0 19.602 2.8008 36.398 5.6016 56h-5.6016c-16.801 0-28 11.199-28 28s11.199 28 28 28h504c16.801 0 28-11.199 28-28s-11.199-28-28-28zm-252-336c22.398 0 42 14 50.398 33.602-5.6016-2.8008-22.398-2.8008-33.602-5.6016-22.398 0-47.598 0-67.195 5.6016 8.3984-19.602 28-33.602 50.398-33.602zm0 84c106.4 0 196 86.801 196 196 0 19.602-2.8008 36.398-8.3984 56h-375.2c-5.5977-19.602-8.3984-36.398-8.3984-56 0-109.2 89.602-196 196-196z"/>
 </g>
</svg>
