<?xml version="1.0" encoding="UTF-8"?>
<svg width="700pt" height="700pt" version="1.1" viewBox="0 0 700 700" xmlns="http://www.w3.org/2000/svg">
 <g>
  <path d="m518 196h-28v-56c0-16.801-11.199-28-28-28h-364c-16.801 0-28 11.199-28 28v308c0 61.602 50.398 112 112 112h196c61.602 0 112-50.398 112-112v-28h28c61.602 0 112-50.398 112-112s-50.398-112-112-112zm-84-28v56h-308v-56zm0 280c0 30.801-25.199 56-56 56h-196c-30.801 0-56-25.199-56-56v-168h308v168zm84-84h-28v-112h28c30.801 0 56 25.199 56 56s-25.199 56-56 56z"/>
  <path d="m266 84c16.801 0 28-11.199 28-28v-28c0-16.801-11.199-28-28-28s-28 11.199-28 28v28c0 16.801 11.199 28 28 28z"/>
  <path d="m154 84c16.801 0 28-11.199 28-28v-28c0-16.801-11.199-28-28-28s-28 11.199-28 28v28c0 16.801 11.199 28 28 28z"/>
  <path d="m378 84c16.801 0 28-11.199 28-28v-28c0-16.801-11.199-28-28-28s-28 11.199-28 28v28c0 16.801 11.199 28 28 28z"/>
 </g>
</svg>
