<?xml version="1.0" encoding="UTF-8"?>
<svg width="700pt" height="700pt" version="1.1" viewBox="0 0 700 700" xmlns="http://www.w3.org/2000/svg">
 <g>
  <path d="m473.2 84c-28 0-58.801 8.3984-84-22.398-98-109.2-280-64.402-313.6 75.598-14 61.602 2.8008 123.2 44.801 168 14 16.801 33.602 42 33.602 70 2.8008 58.801 33.602 114.8 84 148.4 112 81.199 274.4 16.801 305.2-123.2 8.3984-44.801 86.801-56 86.801-162.4-0.003906-84-70.004-154-156.8-154zm14 308c-19.602 100.8-137.2 142.8-215.6 86.801-36.398-25.199-58.801-64.398-61.602-106.4-2.7969-36.402-19.598-72.801-50.395-103.6-28-33.602-39.203-75.602-30.801-117.6 25.199-98 151.2-128.8 218.4-53.199 44.801 50.398 98 42 126 42 56 0 100.8 44.801 100.8 100.8 0 81.199-72.801 75.598-86.801 151.2z"/>
  <path d="m350 168c-61.602 0-112 50.398-112 112s50.398 112 112 112 112-50.398 112-112-50.398-112-112-112zm0 168c-30.801 0-56-25.199-56-56s25.199-56 56-56 56 25.199 56 56-25.199 56-56 56z"/>
 </g>
</svg>
