<?xml version="1.0" encoding="UTF-8"?>
<svg width="700pt" height="700pt" version="1.1" viewBox="0 0 700 700" xmlns="http://www.w3.org/2000/svg">
 <g>
  <path d="m602 140h-504c-16.801 0-28 11.199-28 28s11.199 28 28 28h2.8008c11.199 103.6 86.801 187.6 184.8 215.6l-120.4 100.8c-11.199 11.199-14 28-2.8008 39.199 11.199 11.199 28 14 39.199 2.8008l120.4-103.6v81.199c0 16.801 11.199 28 28 28s28-11.199 28-28v-81.199l123.2 100.8c11.199 11.199 30.801 8.3984 39.199-2.8008 11.199-11.199 8.3984-30.801-2.8008-39.199l-120.4-100.8c98-28 173.6-112 184.8-215.6 16.801 0 28-11.199 28-28s-11.199-25.199-28-25.199zm-252 224c-98 0-179.2-72.801-193.2-168h386.4c-14 95.199-95.199 168-193.2 168z"/>
  <path d="m350 112c16.801 0 28-11.199 28-28v-56c0-16.801-11.199-28-28-28s-28 11.199-28 28v56c0 16.801 11.199 28 28 28z"/>
  <path d="m462 112c16.801 0 28-11.199 28-28v-28c0-16.801-11.199-28-28-28s-28 11.199-28 28v28c0 16.801 11.199 28 28 28z"/>
  <path d="m238 112c16.801 0 28-11.199 28-28v-28c0-16.801-11.199-28-28-28s-28 11.199-28 28v28c0 16.801 11.199 28 28 28z"/>
 </g>
</svg>
