<?xml version="1.0" encoding="UTF-8"?>
<svg width="700pt" height="700pt" version="1.1" viewBox="0 0 700 700" xmlns="http://www.w3.org/2000/svg">
 <g>
  <path d="m473.2 11.199c-11.199-11.199-28-11.199-39.199 0l-355.6 344.4c-16.801 16.801-5.6016 47.602 19.602 47.602h140v75.602c0 16.801 11.199 28 28 28s28-11.199 28-28v-75.602h56v126c0 16.801 11.199 28 28 28s28-11.199 28-28v-126h196c16.801 0 28-11.199 28-28 0-137.2-56-266-156.8-364zm-305.2 336 285.6-277.2c70 78.398 112 173.6 120.4 277.2z"/>
  <path d="m350 240.8c0 47.602 36.398 84 84 84s84-36.398 84-84c0-47.602-36.398-84-84-84s-84 36.398-84 84zm112 0c0 16.801-11.199 28-28 28s-28-11.199-28-28 11.199-28 28-28 28 14 28 28z"/>
 </g>
</svg>
